<?xml version="1.0" encoding="UTF-8" standalone="no"?>
<!-- Created with Inkscape (http://www.inkscape.org/) -->

<svg
   width="1.572907mm"
   height="10.152243mm"
   viewBox="0 0 1.572907 10.152243"
   version="1.1"
   id="svg1"
   inkscape:version="1.3.2 (091e20ef0f, 2023-11-25)"
   sodipodi:docname="exclamation.svg"
   xmlns:inkscape="http://www.inkscape.org/namespaces/inkscape"
   xmlns:sodipodi="http://sodipodi.sourceforge.net/DTD/sodipodi-0.dtd"
   xmlns="http://www.w3.org/2000/svg"
   xmlns:svg="http://www.w3.org/2000/svg">
  <sodipodi:namedview
     id="namedview1"
     pagecolor="#6f6f6f"
     bordercolor="#000000"
     borderopacity="0.25"
     inkscape:showpageshadow="2"
     inkscape:pageopacity="0.0"
     inkscape:pagecheckerboard="0"
     inkscape:deskcolor="#d1d1d1"
     inkscape:document-units="px"
     inkscape:zoom="5.7370931"
     inkscape:cx="15.861691"
     inkscape:cy="30.939013"
     inkscape:window-width="1920"
     inkscape:window-height="1011"
     inkscape:window-x="0"
     inkscape:window-y="0"
     inkscape:window-maximized="1"
     inkscape:current-layer="layer1" />
  <defs
     id="defs1" />
  <g
     inkscape:label="Layer 1"
     inkscape:groupmode="layer"
     id="layer1"
     transform="translate(-55.21819,-50.228142)">
    <path
       style="font-size:8.81944px;font-family:Jomolhari;-inkscape-font-specification:Jomolhari;fill:#ffffff;stroke-width:0.769734"
       d="m 55.907132,57.650586 -0.129995,-1.611881 q -0.039,-0.324977 -0.06499,-0.662952 -0.02599,-0.350975 -0.09099,-0.688949 -0.026,-0.168987 -0.039,-0.233983 0,-0.06499 -0.01298,-0.103989 0,-0.052 -0.01298,-0.116985 -0.01298,-0.06499 -0.026,-0.233984 -0.06499,-0.428968 -0.129994,-0.831939 -0.05199,-0.402969 -0.09099,-0.753943 -0.039,-0.350975 -0.06499,-0.623954 -0.02601,-0.272981 -0.02601,-0.428969 0,-0.532961 0.207985,-0.831939 0.220984,-0.298977 0.597956,-0.298977 0.766943,0 0.766943,1.208911 0,0.142989 0,0.272979 0,0.129994 -0.01298,0.246982 l -0.67595,5.693581 z m 0.116999,1.156914 q 0.324976,0 0.54596,0.246982 0.220983,0.233983 0.220983,0.571958 0,0.324977 -0.220983,0.54596 -0.220984,0.207985 -0.558959,0.207985 -0.337975,0 -0.571958,-0.207985 -0.220984,-0.220983 -0.220984,-0.558958 0,-0.337975 0.233982,-0.571959 0.233984,-0.233983 0.571959,-0.233983 z"
       id="text1"
       aria-label="!" />
  </g>
</svg>
