<?xml version="1.0" encoding="UTF-8" standalone="no"?>
<!-- Created with Inkscape (http://www.inkscape.org/) -->

<svg
   width="153.29288"
   height="158.74113"
   viewBox="0 0 40.558741 42.000258"
   version="1.1"
   id="svg1"
   inkscape:version="1.3.2 (091e20ef0f, 2023-11-25)"
   sodipodi:docname="PROGRAMMER_ART_enemy.svg"
   xmlns:inkscape="http://www.inkscape.org/namespaces/inkscape"
   xmlns:sodipodi="http://sodipodi.sourceforge.net/DTD/sodipodi-0.dtd"
   xmlns="http://www.w3.org/2000/svg"
   xmlns:svg="http://www.w3.org/2000/svg">
  <sodipodi:namedview
     id="namedview1"
     pagecolor="#ffffff"
     bordercolor="#000000"
     borderopacity="0.25"
     inkscape:showpageshadow="2"
     inkscape:pageopacity="0.0"
     inkscape:pagecheckerboard="0"
     inkscape:deskcolor="#d1d1d1"
     inkscape:document-units="px"
     inkscape:zoom="2.8685466"
     inkscape:cx="50.896855"
     inkscape:cy="104.05967"
     inkscape:window-width="1920"
     inkscape:window-height="1011"
     inkscape:window-x="0"
     inkscape:window-y="0"
     inkscape:window-maximized="1"
     inkscape:current-layer="layer1" />
  <defs
     id="defs1" />
  <g
     inkscape:label="Layer 1"
     inkscape:groupmode="layer"
     id="layer1"
     transform="translate(3.4459622,8.2268327)">
    <g
       id="g8"
       transform="matrix(-1,0,0,1,33.666815,-0.21149433)">
      <path
         style="fill:#6e1616;fill-opacity:1;stroke:#2b1100;stroke-width:0.51;stroke-opacity:1"
         d="M 0.94650014,14.02564 C -1.6955575,10.784769 -5.454896,-0.27526689 -1.4141656,-7.1727922 -1.2152817,-4.260872 0.92452203,1.4804603 11.25892,2.9565969"
         id="path6" />
      <path
         id="path7"
         style="fill:#45170e;fill-opacity:1;stroke:none;stroke-width:0.51;stroke-opacity:1"
         d="M -0.26199951,-2.949174 C -1.0801224,-2.9646872 -2.0588522,-2.8630259 -2.9936157,-2.4753011 -3.6719467,2.1011896 -2.4535682,7.212144 -0.93689371,10.709424 -1.2449474,7.431781 -0.66103337,1.6322275 3.2085897,0.17983398 1.7654926,-0.77592496 0.75312808,-1.8595241 0.05012614,-2.9378052 c -0.10107744,-0.00553 -0.20506334,-0.00934 -0.31212565,-0.011369 z" />
      <path
         style="fill:none;fill-opacity:1;stroke:#2b1100;stroke-width:0.51;stroke-opacity:1"
         d="M 0.94650014,14.02564 C -1.6955575,10.784769 -5.454896,-0.27526689 -1.4141656,-7.1727922 -1.2152817,-4.260872 0.92452203,1.4804603 11.25892,2.9565969"
         id="path8" />
    </g>
    <g
       id="g5">
      <path
         style="fill:#6e1616;fill-opacity:1;stroke:#2b1100;stroke-width:0.51;stroke-opacity:1"
         d="M 0.94650014,14.02564 C -1.6955575,10.784769 -5.454896,-0.27526689 -1.4141656,-7.1727922 -1.2152817,-4.260872 0.92452203,1.4804603 11.25892,2.9565969"
         id="path3" />
      <path
         id="path4"
         style="fill:#45170e;fill-opacity:1;stroke:none;stroke-width:0.51;stroke-opacity:1"
         d="M -0.26199951,-2.949174 C -1.0801224,-2.9646872 -2.0588522,-2.8630259 -2.9936157,-2.4753011 -3.6719467,2.1011896 -2.4535682,7.212144 -0.93689371,10.709424 -1.2449474,7.431781 -0.66103337,1.6322275 3.2085897,0.17983398 1.7654926,-0.77592496 0.75312808,-1.8595241 0.05012614,-2.9378052 c -0.10107744,-0.00553 -0.20506334,-0.00934 -0.31212565,-0.011369 z" />
      <path
         style="fill:none;fill-opacity:1;stroke:#2b1100;stroke-width:0.51;stroke-opacity:1"
         d="M 0.94650014,14.02564 C -1.6955575,10.784769 -5.454896,-0.27526689 -1.4141656,-7.1727922 -1.2152817,-4.260872 0.92452203,1.4804603 11.25892,2.9565969"
         id="path5" />
    </g>
    <ellipse
       style="fill:#bc5252;fill-opacity:1;stroke:#2b1100;stroke-width:0.499546"
       id="path1"
       cx="16.98349"
       cy="16.978115"
       rx="16.492359"
       ry="16.545536" />
    <ellipse
       style="fill:#1a1a1a;fill-opacity:1;stroke:#2b1100;stroke-width:0.51"
       id="path2"
       cx="8.6002188"
       cy="16.147987"
       rx="5.5014696"
       ry="1.5851691" />
    <ellipse
       style="fill:#1a1a1a;fill-opacity:1;stroke:#2b1100;stroke-width:0.51"
       id="ellipse2"
       cx="25.846003"
       cy="16.147987"
       rx="5.5014696"
       ry="1.5851691" />
  </g>
</svg>
