<?xml version="1.0" encoding="UTF-8" standalone="no"?>
<!-- Created with Inkscape (http://www.inkscape.org/) -->

<svg
   width="128"
   height="128"
   viewBox="0 0 33.866666 33.866667"
   version="1.1"
   id="svg1"
   inkscape:version="1.4 (e7c3feb100, 2024-10-09)"
   sodipodi:docname="weak_floor"
   xmlns:inkscape="http://www.inkscape.org/namespaces/inkscape"
   xmlns:sodipodi="http://sodipodi.sourceforge.net/DTD/sodipodi-0.dtd"
   xmlns="http://www.w3.org/2000/svg"
   xmlns:svg="http://www.w3.org/2000/svg">
  <sodipodi:namedview
     id="namedview1"
     pagecolor="#ffffff"
     bordercolor="#000000"
     borderopacity="0.25"
     inkscape:showpageshadow="2"
     inkscape:pageopacity="0.0"
     inkscape:pagecheckerboard="0"
     inkscape:deskcolor="#d1d1d1"
     inkscape:document-units="px"
     inkscape:zoom="2.8507295"
     inkscape:cx="125.75728"
     inkscape:cy="101.02677"
     inkscape:window-width="1920"
     inkscape:window-height="1011"
     inkscape:window-x="0"
     inkscape:window-y="0"
     inkscape:window-maximized="1"
     inkscape:current-layer="layer1" />
  <defs
     id="defs1" />
  <g
     inkscape:label="Layer 1"
     inkscape:groupmode="layer"
     id="layer1">
    <path
       id="rect1"
       style="fill:#a1a1a1;fill-opacity:0.936633;stroke:none;stroke-width:0.808679"
       d="M 0.65628348,0.59065513 6.4315781,0 12.403758,0.32814174 21.131557,0.94357683 23.639704,0.25519804 29.79527,0 l 3.546369,1.0500536 0.525027,3.2814174 -0.459398,10.041137 0.459398,14.503865 -0.39377,4.33391 -2.561944,0.656283 L 19.170558,33.742004 16.932424,33.056912 9.9755089,33.538524 3.3470457,33.866666 0.32814174,33.144754 0,28.810845 0.39377009,15.160148 0,3.9377009 Z"
       sodipodi:nodetypes="ccccccccccccccccccccc" />
    <path
       id="path1"
       style="fill:#6f6f6f"
       d="M 28.096476 0.070279948 L 26.511043 0.13642578 L 21.586279 9.3301798 L 21.896338 4.5232381 L 18.066081 5.549532 L 18.38234 0.74982503 L 17.052189 0.65577392 L 17.330208 5.5681356 L 11.381217 9.6097493 L 0.16846517 8.7353841 L 0.19688721 9.5523885 L 10.608655 10.937317 L 8.7291829 16.411401 C 8.059628 16.809905 6.4597494 17.701193 4.5154866 18.357536 C 3.2287495 18.791912 1.9217587 19.226047 0.89865315 19.550745 C 0.64431297 19.631463 0.47593137 19.679579 0.26148275 19.745048 L 0.23719482 20.588924 C 0.51623896 20.505985 0.78319371 20.427919 1.1404989 20.314522 C 1.8574462 20.086988 2.7192915 19.801583 3.6044311 19.505786 L 3.6736776 23.894665 L 10.113078 26.56272 L 8.7984293 33.596916 L 9.9249755 33.541105 L 11.669055 25.793774 L 4.4648437 23.357231 L 4.7139241 19.134232 C 4.7332658 19.127706 4.7519516 19.121639 4.771285 19.115112 C 7.2284684 18.285617 9.3871931 17.532917 9.6056152 17.456816 L 16.597436 24.513749 L 16.597436 33.080151 L 16.9323 33.056897 L 17.517794 33.236214 L 17.840255 24.543721 L 25.463045 20.790462 L 30.236914 22.908162 L 26.56272 28.644763 L 27.018506 33.825325 L 27.969352 33.835661 L 27.614852 28.892293 L 30.980021 23.237858 L 33.726623 24.456388 L 33.696651 23.51381 L 26.171012 20.012732 L 21.580078 11.037052 L 25.331787 4.7232259 L 27.894421 6.8869181 L 28.226701 13.781071 L 33.464624 16.17679 L 33.436202 15.284338 L 29.001847 13.257589 L 29.002364 6.5928792 L 25.749333 4.0204264 L 28.096476 0.070279948 z M 20.654036 6.3262288 L 20.667989 11.131103 L 20.740336 11.135754 L 25.012943 20.119702 L 17.653186 23.745321 L 10.117212 16.319934 L 11.44788 11.048938 L 11.464933 11.051005 L 17.883146 6.4021932 L 17.88883 6.4238973 L 20.654036 6.3262288 z " />
  </g>
</svg>
